<mxfile host="Electron" modified="2024-07-18T15:21:31.109Z" agent="Mozilla/5.0 (Macintosh; Intel Mac OS X 10_15_7) AppleWebKit/537.36 (KHTML, like Gecko) draw.io/22.1.16 Chrome/120.0.6099.109 Electron/28.1.0 Safari/537.36" etag="Bwg6Anddcje0oJnb5_A8" version="22.1.16" type="device">
  <diagram name="Page-1" id="GIKHmB9y_BDL_x4ilWfb">
    <mxGraphModel dx="1380" dy="2007" grid="1" gridSize="10" guides="1" tooltips="1" connect="1" arrows="1" fold="1" page="1" pageScale="1" pageWidth="850" pageHeight="1100" math="0" shadow="0">
      <root>
        <mxCell id="0" />
        <mxCell id="1" parent="0" />
        <mxCell id="FrFTshlV5z5hL1M2k67Q-138" value="" style="rounded=0;whiteSpace=wrap;html=1;strokeColor=#9673a6;fillColor=#e1d5e7;" vertex="1" parent="1">
          <mxGeometry y="1100" width="370" height="160.3" as="geometry" />
        </mxCell>
        <mxCell id="igS4ZqF1SHgYxhtwcaFk-54" value="" style="swimlane;startSize=0;fillColor=#FFFFCC;gradientColor=none;" parent="1" vertex="1">
          <mxGeometry y="20" width="330" height="100" as="geometry" />
        </mxCell>
        <mxCell id="kXIgV7pdSpHbNDQo-jJT-2" value="" style="rounded=0;whiteSpace=wrap;html=1;fillColor=#FFFFCC;strokeColor=none;" parent="igS4ZqF1SHgYxhtwcaFk-54" vertex="1">
          <mxGeometry width="330" height="100" as="geometry" />
        </mxCell>
        <mxCell id="igS4ZqF1SHgYxhtwcaFk-37" value="First Model" style="shape=hexagon;perimeter=hexagonPerimeter2;whiteSpace=wrap;html=1;fixedSize=1;" parent="igS4ZqF1SHgYxhtwcaFk-54" vertex="1">
          <mxGeometry x="110" y="22.5" width="80" height="55" as="geometry" />
        </mxCell>
        <mxCell id="igS4ZqF1SHgYxhtwcaFk-50" value="" style="group" parent="igS4ZqF1SHgYxhtwcaFk-54" vertex="1" connectable="0">
          <mxGeometry x="230" y="34.5" width="90" height="43" as="geometry" />
        </mxCell>
        <mxCell id="igS4ZqF1SHgYxhtwcaFk-46" value="" style="rounded=1;whiteSpace=wrap;html=1;" parent="igS4ZqF1SHgYxhtwcaFk-50" vertex="1">
          <mxGeometry width="85.34482758620689" height="38.392857142857146" as="geometry" />
        </mxCell>
        <mxCell id="igS4ZqF1SHgYxhtwcaFk-47" value="" style="rounded=1;whiteSpace=wrap;html=1;" parent="igS4ZqF1SHgYxhtwcaFk-50" vertex="1">
          <mxGeometry x="2.3275862068965516" y="2.303571428571429" width="85.34482758620689" height="38.392857142857146" as="geometry" />
        </mxCell>
        <mxCell id="igS4ZqF1SHgYxhtwcaFk-48" value="Multi-Model" style="rounded=1;whiteSpace=wrap;html=1;" parent="igS4ZqF1SHgYxhtwcaFk-50" vertex="1">
          <mxGeometry x="4.655172413793103" y="4.607142857142858" width="85.34482758620689" height="38.392857142857146" as="geometry" />
        </mxCell>
        <mxCell id="n94J9Nm3W72VEINgGD9b-1" value="[initialize]" style="text;html=1;align=center;verticalAlign=middle;whiteSpace=wrap;rounded=0;" parent="igS4ZqF1SHgYxhtwcaFk-54" vertex="1">
          <mxGeometry x="245" y="70" width="60" height="30" as="geometry" />
        </mxCell>
        <mxCell id="n94J9Nm3W72VEINgGD9b-2" value="[initialize]" style="text;html=1;align=center;verticalAlign=middle;whiteSpace=wrap;rounded=0;" parent="igS4ZqF1SHgYxhtwcaFk-54" vertex="1">
          <mxGeometry x="120" y="70" width="60" height="30" as="geometry" />
        </mxCell>
        <mxCell id="n94J9Nm3W72VEINgGD9b-10" value="User&lt;div&gt;Task&lt;/div&gt;" style="shape=card;whiteSpace=wrap;html=1;" parent="igS4ZqF1SHgYxhtwcaFk-54" vertex="1">
          <mxGeometry x="10" y="25" width="60" height="65" as="geometry" />
        </mxCell>
        <mxCell id="n94J9Nm3W72VEINgGD9b-11" value="&lt;h1 style=&quot;margin-top: 0px;&quot;&gt;&lt;font style=&quot;font-size: 14px;&quot;&gt;Setup&lt;/font&gt;&lt;/h1&gt;" style="text;html=1;whiteSpace=wrap;overflow=hidden;rounded=0;" parent="igS4ZqF1SHgYxhtwcaFk-54" vertex="1">
          <mxGeometry x="142.5" y="-14.5" width="45" height="35" as="geometry" />
        </mxCell>
        <mxCell id="3DHJ9fneF2AZ0MnbDjo5-20" value="A" style="shape=waypoint;sketch=0;fillStyle=solid;size=6;pointerEvents=1;points=[];fillColor=none;resizable=0;rotatable=0;perimeter=centerPerimeter;snapToPoint=1;strokeWidth=12;fontColor=#FFFFFF;fontSize=16;" parent="igS4ZqF1SHgYxhtwcaFk-54" vertex="1">
          <mxGeometry x="10" y="20.5" width="20" height="20" as="geometry" />
        </mxCell>
        <mxCell id="3DHJ9fneF2AZ0MnbDjo5-21" value="B" style="shape=waypoint;sketch=0;fillStyle=solid;size=6;pointerEvents=1;points=[];fillColor=none;resizable=0;rotatable=0;perimeter=centerPerimeter;snapToPoint=1;strokeWidth=12;fontColor=#FFFFFF;fontSize=16;" parent="igS4ZqF1SHgYxhtwcaFk-54" vertex="1">
          <mxGeometry x="120" y="14.5" width="20" height="20" as="geometry" />
        </mxCell>
        <mxCell id="3DHJ9fneF2AZ0MnbDjo5-22" value="C" style="shape=waypoint;sketch=0;fillStyle=solid;size=6;pointerEvents=1;points=[];fillColor=none;resizable=0;rotatable=0;perimeter=centerPerimeter;snapToPoint=1;strokeWidth=12;fontColor=#FFFFFF;fontSize=16;" parent="igS4ZqF1SHgYxhtwcaFk-54" vertex="1">
          <mxGeometry x="225" y="20.5" width="20" height="20" as="geometry" />
        </mxCell>
        <mxCell id="igS4ZqF1SHgYxhtwcaFk-75" value="" style="swimlane;startSize=0;strokeColor=default;fillColor=#CCE5FF;gradientColor=none;fillStyle=solid;" parent="1" vertex="1">
          <mxGeometry x="380" y="20" width="440" height="210" as="geometry" />
        </mxCell>
        <mxCell id="kXIgV7pdSpHbNDQo-jJT-1" value="" style="rounded=0;whiteSpace=wrap;html=1;fillColor=#dae8fc;strokeColor=none;" parent="igS4ZqF1SHgYxhtwcaFk-75" vertex="1">
          <mxGeometry width="440" height="210" as="geometry" />
        </mxCell>
        <mxCell id="n94J9Nm3W72VEINgGD9b-12" value="&lt;h1 style=&quot;margin-top: 0px;&quot;&gt;&lt;font style=&quot;font-size: 14px;&quot;&gt;Simulate &amp;amp; Compute&lt;/font&gt;&lt;/h1&gt;" style="text;html=1;whiteSpace=wrap;overflow=hidden;rounded=0;" parent="igS4ZqF1SHgYxhtwcaFk-75" vertex="1">
          <mxGeometry x="142.5" y="-10" width="155" height="40" as="geometry" />
        </mxCell>
        <mxCell id="kXIgV7pdSpHbNDQo-jJT-50" value="" style="group" parent="igS4ZqF1SHgYxhtwcaFk-75" vertex="1" connectable="0">
          <mxGeometry x="14" y="31" width="406" height="159" as="geometry" />
        </mxCell>
        <mxCell id="igS4ZqF1SHgYxhtwcaFk-77" value="" style="group" parent="kXIgV7pdSpHbNDQo-jJT-50" vertex="1" connectable="0">
          <mxGeometry x="316" width="90" height="43" as="geometry" />
        </mxCell>
        <mxCell id="igS4ZqF1SHgYxhtwcaFk-78" value="" style="rounded=1;whiteSpace=wrap;html=1;" parent="igS4ZqF1SHgYxhtwcaFk-77" vertex="1">
          <mxGeometry width="85.34482758620689" height="38.392857142857146" as="geometry" />
        </mxCell>
        <mxCell id="igS4ZqF1SHgYxhtwcaFk-79" value="" style="rounded=1;whiteSpace=wrap;html=1;" parent="igS4ZqF1SHgYxhtwcaFk-77" vertex="1">
          <mxGeometry x="2.3275862068965516" y="2.303571428571429" width="85.34482758620689" height="38.392857142857146" as="geometry" />
        </mxCell>
        <mxCell id="igS4ZqF1SHgYxhtwcaFk-80" value="Multi-Model" style="rounded=1;whiteSpace=wrap;html=1;" parent="igS4ZqF1SHgYxhtwcaFk-77" vertex="1">
          <mxGeometry x="4.655172413793103" y="4.607142857142858" width="85.34482758620689" height="38.392857142857146" as="geometry" />
        </mxCell>
        <mxCell id="igS4ZqF1SHgYxhtwcaFk-39" value="Run (next) Model" style="rounded=1;whiteSpace=wrap;html=1;" parent="kXIgV7pdSpHbNDQo-jJT-50" vertex="1">
          <mxGeometry y="1.5" width="90" height="40" as="geometry" />
        </mxCell>
        <mxCell id="igS4ZqF1SHgYxhtwcaFk-40" value="Save &lt;br&gt;Simulation Results" style="rounded=1;whiteSpace=wrap;html=1;" parent="kXIgV7pdSpHbNDQo-jJT-50" vertex="1">
          <mxGeometry x="126" y="1.5" width="90" height="40" as="geometry" />
        </mxCell>
        <mxCell id="igS4ZqF1SHgYxhtwcaFk-82" style="edgeStyle=orthogonalEdgeStyle;rounded=0;orthogonalLoop=1;jettySize=auto;html=1;" parent="kXIgV7pdSpHbNDQo-jJT-50" source="igS4ZqF1SHgYxhtwcaFk-39" target="igS4ZqF1SHgYxhtwcaFk-40" edge="1">
          <mxGeometry relative="1" as="geometry" />
        </mxCell>
        <mxCell id="igS4ZqF1SHgYxhtwcaFk-86" style="edgeStyle=orthogonalEdgeStyle;rounded=0;orthogonalLoop=1;jettySize=auto;html=1;entryX=0.017;entryY=0.572;entryDx=0;entryDy=0;entryPerimeter=0;" parent="kXIgV7pdSpHbNDQo-jJT-50" source="igS4ZqF1SHgYxhtwcaFk-40" target="igS4ZqF1SHgYxhtwcaFk-78" edge="1">
          <mxGeometry relative="1" as="geometry" />
        </mxCell>
        <mxCell id="igS4ZqF1SHgYxhtwcaFk-87" value="append t&lt;span style=&quot;background-color: initial;&quot;&gt;o&lt;/span&gt;" style="text;html=1;align=center;verticalAlign=middle;resizable=0;points=[];autosize=1;strokeColor=none;fillColor=none;" parent="kXIgV7pdSpHbNDQo-jJT-50" vertex="1">
          <mxGeometry x="226" width="80" height="30" as="geometry" />
        </mxCell>
        <mxCell id="igS4ZqF1SHgYxhtwcaFk-90" value="remaining models?" style="rhombus;whiteSpace=wrap;html=1;" parent="kXIgV7pdSpHbNDQo-jJT-50" vertex="1">
          <mxGeometry x="161" y="79" width="90" height="80" as="geometry" />
        </mxCell>
        <mxCell id="igS4ZqF1SHgYxhtwcaFk-95" style="edgeStyle=orthogonalEdgeStyle;rounded=0;orthogonalLoop=1;jettySize=auto;html=1;" parent="kXIgV7pdSpHbNDQo-jJT-50" source="igS4ZqF1SHgYxhtwcaFk-80" target="igS4ZqF1SHgYxhtwcaFk-90" edge="1">
          <mxGeometry relative="1" as="geometry">
            <Array as="points">
              <mxPoint x="363" y="120" />
            </Array>
          </mxGeometry>
        </mxCell>
        <mxCell id="igS4ZqF1SHgYxhtwcaFk-96" style="edgeStyle=orthogonalEdgeStyle;rounded=0;orthogonalLoop=1;jettySize=auto;html=1;exitX=0;exitY=0;exitDx=0;exitDy=0;entryX=0.5;entryY=1;entryDx=0;entryDy=0;strokeColor=#006600;" parent="kXIgV7pdSpHbNDQo-jJT-50" source="igS4ZqF1SHgYxhtwcaFk-90" target="igS4ZqF1SHgYxhtwcaFk-39" edge="1">
          <mxGeometry relative="1" as="geometry" />
        </mxCell>
        <mxCell id="igS4ZqF1SHgYxhtwcaFk-97" value="yes" style="edgeLabel;html=1;align=center;verticalAlign=middle;resizable=0;points=[];labelBackgroundColor=#DAE8FC;fontColor=#006600;" parent="igS4ZqF1SHgYxhtwcaFk-96" vertex="1" connectable="0">
          <mxGeometry x="-0.0858" relative="1" as="geometry">
            <mxPoint as="offset" />
          </mxGeometry>
        </mxCell>
        <mxCell id="3DHJ9fneF2AZ0MnbDjo5-24" value="E" style="shape=waypoint;sketch=0;fillStyle=solid;size=6;pointerEvents=1;points=[];fillColor=none;resizable=0;rotatable=0;perimeter=centerPerimeter;snapToPoint=1;strokeWidth=12;fontColor=#FFFFFF;fontSize=16;" parent="kXIgV7pdSpHbNDQo-jJT-50" vertex="1">
          <mxGeometry x="118" y="-6" width="20" height="20" as="geometry" />
        </mxCell>
        <mxCell id="3DHJ9fneF2AZ0MnbDjo5-26" value="G" style="shape=waypoint;sketch=0;fillStyle=solid;size=6;pointerEvents=1;points=[];fillColor=none;resizable=0;rotatable=0;perimeter=centerPerimeter;snapToPoint=1;strokeWidth=12;fontColor=#FFFFFF;fontSize=16;" parent="kXIgV7pdSpHbNDQo-jJT-50" vertex="1">
          <mxGeometry x="196" y="69.5" width="20" height="20" as="geometry" />
        </mxCell>
        <mxCell id="3DHJ9fneF2AZ0MnbDjo5-23" value="D" style="shape=waypoint;sketch=0;fillStyle=solid;size=6;pointerEvents=1;points=[];fillColor=none;resizable=0;rotatable=0;perimeter=centerPerimeter;snapToPoint=1;strokeWidth=12;fontColor=#FFFFFF;fontSize=16;" parent="igS4ZqF1SHgYxhtwcaFk-75" vertex="1">
          <mxGeometry x="10" y="20" width="20" height="20" as="geometry" />
        </mxCell>
        <mxCell id="3DHJ9fneF2AZ0MnbDjo5-25" value="F" style="shape=waypoint;sketch=0;fillStyle=solid;size=6;pointerEvents=1;points=[];fillColor=none;resizable=0;rotatable=0;perimeter=centerPerimeter;snapToPoint=1;strokeWidth=12;fontColor=#FFFFFF;fontSize=16;" parent="igS4ZqF1SHgYxhtwcaFk-75" vertex="1">
          <mxGeometry x="400" y="20" width="20" height="20" as="geometry" />
        </mxCell>
        <mxCell id="igS4ZqF1SHgYxhtwcaFk-106" value="" style="swimlane;startSize=0;" parent="1" vertex="1">
          <mxGeometry y="140" width="330" height="90" as="geometry" />
        </mxCell>
        <mxCell id="kXIgV7pdSpHbNDQo-jJT-113" value="" style="group" parent="igS4ZqF1SHgYxhtwcaFk-106" vertex="1" connectable="0">
          <mxGeometry y="-15.5" width="330" height="105.5" as="geometry" />
        </mxCell>
        <mxCell id="kXIgV7pdSpHbNDQo-jJT-3" value="" style="rounded=0;whiteSpace=wrap;html=1;strokeColor=#9673a6;fillColor=#e1d5e7;" parent="kXIgV7pdSpHbNDQo-jJT-113" vertex="1">
          <mxGeometry y="15.5" width="330" height="90" as="geometry" />
        </mxCell>
        <mxCell id="igS4ZqF1SHgYxhtwcaFk-112" value="" style="group" parent="kXIgV7pdSpHbNDQo-jJT-113" vertex="1" connectable="0">
          <mxGeometry x="190" y="41.5" width="100" height="43" as="geometry" />
        </mxCell>
        <mxCell id="igS4ZqF1SHgYxhtwcaFk-113" value="" style="rounded=1;whiteSpace=wrap;html=1;" parent="igS4ZqF1SHgYxhtwcaFk-112" vertex="1">
          <mxGeometry width="85.34482758620689" height="38.392857142857146" as="geometry" />
        </mxCell>
        <mxCell id="igS4ZqF1SHgYxhtwcaFk-114" value="" style="rounded=1;whiteSpace=wrap;html=1;" parent="igS4ZqF1SHgYxhtwcaFk-112" vertex="1">
          <mxGeometry x="2.3275862068965516" y="2.303571428571429" width="85.34482758620689" height="38.392857142857146" as="geometry" />
        </mxCell>
        <mxCell id="igS4ZqF1SHgYxhtwcaFk-115" value="Multi-Model" style="rounded=1;whiteSpace=wrap;html=1;" parent="igS4ZqF1SHgYxhtwcaFk-112" vertex="1">
          <mxGeometry x="4.655172413793103" y="4.607142857142858" width="85.34482758620689" height="38.392857142857146" as="geometry" />
        </mxCell>
        <mxCell id="3DHJ9fneF2AZ0MnbDjo5-27" value="H" style="shape=waypoint;sketch=0;fillStyle=solid;size=6;pointerEvents=1;points=[];fillColor=none;resizable=0;rotatable=0;perimeter=centerPerimeter;snapToPoint=1;strokeWidth=12;fontColor=#FFFFFF;fontSize=16;" parent="igS4ZqF1SHgYxhtwcaFk-112" vertex="1">
          <mxGeometry x="80" y="-15.389999999999986" width="20" height="20" as="geometry" />
        </mxCell>
        <mxCell id="n94J9Nm3W72VEINgGD9b-5" value="[ready]" style="text;html=1;align=center;verticalAlign=middle;whiteSpace=wrap;rounded=0;" parent="kXIgV7pdSpHbNDQo-jJT-113" vertex="1">
          <mxGeometry x="205" y="78.50000000000001" width="60" height="30" as="geometry" />
        </mxCell>
        <mxCell id="n94J9Nm3W72VEINgGD9b-7" value="Multi-Model output" style="shape=document;whiteSpace=wrap;html=1;boundedLbl=1;" parent="kXIgV7pdSpHbNDQo-jJT-113" vertex="1">
          <mxGeometry x="40" y="35" width="90" height="60" as="geometry" />
        </mxCell>
        <mxCell id="n94J9Nm3W72VEINgGD9b-8" style="edgeStyle=orthogonalEdgeStyle;rounded=0;orthogonalLoop=1;jettySize=auto;html=1;entryX=1;entryY=0.5;entryDx=0;entryDy=0;" parent="kXIgV7pdSpHbNDQo-jJT-113" source="igS4ZqF1SHgYxhtwcaFk-115" target="n94J9Nm3W72VEINgGD9b-7" edge="1">
          <mxGeometry relative="1" as="geometry" />
        </mxCell>
        <mxCell id="n94J9Nm3W72VEINgGD9b-15" value="&lt;h1 style=&quot;margin-top: 0px;&quot;&gt;&lt;font style=&quot;font-size: 14px;&quot;&gt;Output&lt;/font&gt;&lt;/h1&gt;" style="text;html=1;whiteSpace=wrap;overflow=hidden;rounded=0;" parent="kXIgV7pdSpHbNDQo-jJT-113" vertex="1">
          <mxGeometry x="137.5" width="55" height="35" as="geometry" />
        </mxCell>
        <mxCell id="3DHJ9fneF2AZ0MnbDjo5-28" value="I" style="shape=waypoint;sketch=0;fillStyle=solid;size=6;pointerEvents=1;points=[];fillColor=none;resizable=0;rotatable=0;perimeter=centerPerimeter;snapToPoint=1;strokeWidth=12;fontColor=#FFFFFF;fontSize=16;" parent="kXIgV7pdSpHbNDQo-jJT-113" vertex="1">
          <mxGeometry x="29.999999999999943" y="21.5" width="20" height="20" as="geometry" />
        </mxCell>
        <mxCell id="igS4ZqF1SHgYxhtwcaFk-116" style="edgeStyle=orthogonalEdgeStyle;rounded=0;orthogonalLoop=1;jettySize=auto;html=1;exitX=0;exitY=1;exitDx=0;exitDy=0;fillColor=#f8cecc;strokeColor=#b85450;" parent="1" source="igS4ZqF1SHgYxhtwcaFk-90" target="igS4ZqF1SHgYxhtwcaFk-115" edge="1">
          <mxGeometry relative="1" as="geometry" />
        </mxCell>
        <mxCell id="igS4ZqF1SHgYxhtwcaFk-117" value="no" style="edgeLabel;html=1;align=center;verticalAlign=middle;resizable=0;points=[];labelBackgroundColor=#DAE8FC;fontColor=#990000;" parent="igS4ZqF1SHgYxhtwcaFk-116" vertex="1" connectable="0">
          <mxGeometry x="-0.0609" relative="1" as="geometry">
            <mxPoint as="offset" />
          </mxGeometry>
        </mxCell>
        <mxCell id="kXIgV7pdSpHbNDQo-jJT-5" value="" style="rounded=0;whiteSpace=wrap;html=1;fillColor=#FFFFCC;strokeColor=default;" parent="1" vertex="1">
          <mxGeometry y="350" width="220" height="100" as="geometry" />
        </mxCell>
        <mxCell id="kXIgV7pdSpHbNDQo-jJT-6" value="User&lt;div&gt;Task&lt;/div&gt;" style="shape=card;whiteSpace=wrap;html=1;" parent="1" vertex="1">
          <mxGeometry x="18" y="370.5" width="60" height="65" as="geometry" />
        </mxCell>
        <mxCell id="kXIgV7pdSpHbNDQo-jJT-8" value="&lt;h1&gt;&lt;font style=&quot;font-size: 24px;&quot;&gt;CWS (Compute While Simulating) - do not export title&lt;/font&gt;&lt;/h1&gt;" style="text;html=1;strokeColor=none;fillColor=none;spacing=5;spacingTop=-20;whiteSpace=wrap;overflow=hidden;rounded=0;" parent="1" vertex="1">
          <mxGeometry x="110" y="-30" width="690" height="50" as="geometry" />
        </mxCell>
        <mxCell id="kXIgV7pdSpHbNDQo-jJT-9" value="&lt;h1&gt;&lt;font style=&quot;font-size: 24px;&quot;&gt;SFCL (Simulate First, Compute Later) - do not export title&lt;/font&gt;&lt;/h1&gt;" style="text;html=1;strokeColor=none;fillColor=none;spacing=5;spacingTop=-20;whiteSpace=wrap;overflow=hidden;rounded=0;" parent="1" vertex="1">
          <mxGeometry x="110" y="300" width="660" height="40" as="geometry" />
        </mxCell>
        <mxCell id="kXIgV7pdSpHbNDQo-jJT-12" value="First Model" style="shape=hexagon;perimeter=hexagonPerimeter2;whiteSpace=wrap;html=1;fixedSize=1;" parent="1" vertex="1">
          <mxGeometry x="115" y="377.5" width="80" height="55" as="geometry" />
        </mxCell>
        <mxCell id="kXIgV7pdSpHbNDQo-jJT-13" value="&lt;h1 style=&quot;margin-top: 0px;&quot;&gt;&lt;font style=&quot;font-size: 14px;&quot;&gt;Setup&lt;/font&gt;&lt;/h1&gt;" style="text;html=1;whiteSpace=wrap;overflow=hidden;rounded=0;" parent="1" vertex="1">
          <mxGeometry x="87.5" y="340" width="45" height="35" as="geometry" />
        </mxCell>
        <mxCell id="kXIgV7pdSpHbNDQo-jJT-14" value="[initialize]" style="text;html=1;align=center;verticalAlign=middle;whiteSpace=wrap;rounded=0;" parent="1" vertex="1">
          <mxGeometry x="125" y="426" width="60" height="30" as="geometry" />
        </mxCell>
        <mxCell id="kXIgV7pdSpHbNDQo-jJT-83" value="" style="rounded=0;whiteSpace=wrap;html=1;fillColor=#DAE8FC;" parent="1" vertex="1">
          <mxGeometry x="290" y="350" width="530" height="100" as="geometry" />
        </mxCell>
        <mxCell id="kXIgV7pdSpHbNDQo-jJT-105" style="edgeStyle=orthogonalEdgeStyle;rounded=0;orthogonalLoop=1;jettySize=auto;html=1;" parent="1" source="kXIgV7pdSpHbNDQo-jJT-98" target="kXIgV7pdSpHbNDQo-jJT-104" edge="1">
          <mxGeometry relative="1" as="geometry" />
        </mxCell>
        <mxCell id="kXIgV7pdSpHbNDQo-jJT-98" value="Run (next) Model" style="rounded=1;whiteSpace=wrap;html=1;" parent="1" vertex="1">
          <mxGeometry x="310" y="383" width="90" height="40" as="geometry" />
        </mxCell>
        <mxCell id="kXIgV7pdSpHbNDQo-jJT-103" style="edgeStyle=orthogonalEdgeStyle;rounded=0;orthogonalLoop=1;jettySize=auto;html=1;entryX=0.002;entryY=0.435;entryDx=0;entryDy=0;entryPerimeter=0;" parent="1" source="kXIgV7pdSpHbNDQo-jJT-2" target="igS4ZqF1SHgYxhtwcaFk-39" edge="1">
          <mxGeometry relative="1" as="geometry" />
        </mxCell>
        <mxCell id="kXIgV7pdSpHbNDQo-jJT-108" style="edgeStyle=orthogonalEdgeStyle;rounded=0;orthogonalLoop=1;jettySize=auto;html=1;exitX=1;exitY=0.5;exitDx=0;exitDy=0;" parent="1" source="kXIgV7pdSpHbNDQo-jJT-104" target="kXIgV7pdSpHbNDQo-jJT-106" edge="1">
          <mxGeometry relative="1" as="geometry" />
        </mxCell>
        <mxCell id="kXIgV7pdSpHbNDQo-jJT-104" value="Save simulation results on disk" style="rounded=1;whiteSpace=wrap;html=1;" parent="1" vertex="1">
          <mxGeometry x="510" y="383" width="90" height="40" as="geometry" />
        </mxCell>
        <mxCell id="kXIgV7pdSpHbNDQo-jJT-109" style="edgeStyle=orthogonalEdgeStyle;rounded=0;orthogonalLoop=1;jettySize=auto;html=1;fillColor=#008a00;strokeColor=#005700;" parent="1" source="kXIgV7pdSpHbNDQo-jJT-106" target="kXIgV7pdSpHbNDQo-jJT-98" edge="1">
          <mxGeometry relative="1" as="geometry">
            <Array as="points">
              <mxPoint x="355" y="440" />
            </Array>
          </mxGeometry>
        </mxCell>
        <mxCell id="kXIgV7pdSpHbNDQo-jJT-110" value="yes" style="edgeLabel;html=1;align=center;verticalAlign=middle;resizable=0;points=[];labelBackgroundColor=#DAE8FC;fontColor=#006600;" parent="kXIgV7pdSpHbNDQo-jJT-109" vertex="1" connectable="0">
          <mxGeometry x="-0.0676" y="1" relative="1" as="geometry">
            <mxPoint y="-4" as="offset" />
          </mxGeometry>
        </mxCell>
        <mxCell id="kXIgV7pdSpHbNDQo-jJT-106" value="remaining models?" style="rhombus;whiteSpace=wrap;html=1;" parent="1" vertex="1">
          <mxGeometry x="722" y="363" width="90" height="80" as="geometry" />
        </mxCell>
        <mxCell id="kXIgV7pdSpHbNDQo-jJT-107" value="&lt;h1 style=&quot;margin-top: 0px;&quot;&gt;&lt;font style=&quot;font-size: 14px;&quot;&gt;Simulate&lt;/font&gt;&lt;/h1&gt;" style="text;html=1;whiteSpace=wrap;overflow=hidden;rounded=0;" parent="1" vertex="1">
          <mxGeometry x="523.75" y="340" width="62.5" height="40" as="geometry" />
        </mxCell>
        <mxCell id="kXIgV7pdSpHbNDQo-jJT-65" style="edgeStyle=orthogonalEdgeStyle;rounded=0;orthogonalLoop=1;jettySize=auto;html=1;entryX=0.008;entryY=0.421;entryDx=0;entryDy=0;entryPerimeter=0;" parent="1" source="kXIgV7pdSpHbNDQo-jJT-5" target="kXIgV7pdSpHbNDQo-jJT-98" edge="1">
          <mxGeometry relative="1" as="geometry">
            <mxPoint x="290" y="400" as="targetPoint" />
          </mxGeometry>
        </mxCell>
        <mxCell id="kXIgV7pdSpHbNDQo-jJT-111" value="" style="rounded=0;whiteSpace=wrap;html=1;fillColor=#d5e8d4;strokeColor=#82b366;" parent="1" vertex="1">
          <mxGeometry x="290" y="480" width="530" height="140" as="geometry" />
        </mxCell>
        <mxCell id="kXIgV7pdSpHbNDQo-jJT-126" value="&lt;h1 style=&quot;margin-top: 0px;&quot;&gt;&lt;font style=&quot;font-size: 14px;&quot;&gt;Compute&lt;/font&gt;&lt;/h1&gt;" style="text;html=1;whiteSpace=wrap;overflow=hidden;rounded=0;" parent="1" vertex="1">
          <mxGeometry x="523.75" y="473.79999999999995" width="62.5" height="40" as="geometry" />
        </mxCell>
        <mxCell id="kXIgV7pdSpHbNDQo-jJT-190" style="edgeStyle=orthogonalEdgeStyle;rounded=0;orthogonalLoop=1;jettySize=auto;html=1;" parent="1" source="kXIgV7pdSpHbNDQo-jJT-137" target="kXIgV7pdSpHbNDQo-jJT-162" edge="1">
          <mxGeometry relative="1" as="geometry">
            <Array as="points">
              <mxPoint x="505" y="511" />
            </Array>
          </mxGeometry>
        </mxCell>
        <mxCell id="kXIgV7pdSpHbNDQo-jJT-191" value="append to" style="edgeLabel;html=1;align=center;verticalAlign=middle;resizable=0;points=[];labelBackgroundColor=#D5E8D4;" parent="kXIgV7pdSpHbNDQo-jJT-190" vertex="1" connectable="0">
          <mxGeometry x="0.1637" y="1" relative="1" as="geometry">
            <mxPoint as="offset" />
          </mxGeometry>
        </mxCell>
        <mxCell id="kXIgV7pdSpHbNDQo-jJT-137" value="Read (next) file&lt;br&gt;with results" style="rounded=1;whiteSpace=wrap;html=1;" parent="1" vertex="1">
          <mxGeometry x="460" y="549" width="90" height="40" as="geometry" />
        </mxCell>
        <mxCell id="kXIgV7pdSpHbNDQo-jJT-139" value="[identify]" style="text;html=1;align=center;verticalAlign=middle;whiteSpace=wrap;rounded=0;" parent="1" vertex="1">
          <mxGeometry x="602" y="589" width="60" height="30" as="geometry" />
        </mxCell>
        <mxCell id="kXIgV7pdSpHbNDQo-jJT-150" value="" style="group" parent="1" vertex="1" connectable="0">
          <mxGeometry x="720" y="545" width="90" height="43" as="geometry" />
        </mxCell>
        <mxCell id="kXIgV7pdSpHbNDQo-jJT-151" value="" style="rounded=1;whiteSpace=wrap;html=1;" parent="kXIgV7pdSpHbNDQo-jJT-150" vertex="1">
          <mxGeometry width="85.34482758620689" height="38.392857142857146" as="geometry" />
        </mxCell>
        <mxCell id="kXIgV7pdSpHbNDQo-jJT-152" value="" style="rounded=1;whiteSpace=wrap;html=1;" parent="kXIgV7pdSpHbNDQo-jJT-150" vertex="1">
          <mxGeometry x="2.3275862068965516" y="2.303571428571429" width="85.34482758620689" height="38.392857142857146" as="geometry" />
        </mxCell>
        <mxCell id="kXIgV7pdSpHbNDQo-jJT-153" value="Multi-Model" style="rounded=1;whiteSpace=wrap;html=1;" parent="kXIgV7pdSpHbNDQo-jJT-150" vertex="1">
          <mxGeometry x="4.655172413793103" y="4.607142857142858" width="85.34482758620689" height="38.392857142857146" as="geometry" />
        </mxCell>
        <mxCell id="kXIgV7pdSpHbNDQo-jJT-154" value="[initialize]" style="text;html=1;align=center;verticalAlign=middle;whiteSpace=wrap;rounded=0;" parent="1" vertex="1">
          <mxGeometry x="735" y="588" width="60" height="30" as="geometry" />
        </mxCell>
        <mxCell id="kXIgV7pdSpHbNDQo-jJT-189" style="edgeStyle=orthogonalEdgeStyle;rounded=0;orthogonalLoop=1;jettySize=auto;html=1;entryX=1;entryY=0.5;entryDx=0;entryDy=0;" parent="1" source="kXIgV7pdSpHbNDQo-jJT-156" target="kXIgV7pdSpHbNDQo-jJT-137" edge="1">
          <mxGeometry relative="1" as="geometry" />
        </mxCell>
        <mxCell id="kXIgV7pdSpHbNDQo-jJT-156" value="First file &lt;br&gt;with&lt;br&gt;results" style="shape=hexagon;perimeter=hexagonPerimeter2;whiteSpace=wrap;html=1;fixedSize=1;" parent="1" vertex="1">
          <mxGeometry x="592" y="541" width="80" height="55" as="geometry" />
        </mxCell>
        <mxCell id="kXIgV7pdSpHbNDQo-jJT-159" value="" style="group" parent="1" vertex="1" connectable="0">
          <mxGeometry x="360" y="485" width="90" height="43" as="geometry" />
        </mxCell>
        <mxCell id="kXIgV7pdSpHbNDQo-jJT-160" value="" style="rounded=1;whiteSpace=wrap;html=1;" parent="kXIgV7pdSpHbNDQo-jJT-159" vertex="1">
          <mxGeometry width="85.34482758620689" height="38.392857142857146" as="geometry" />
        </mxCell>
        <mxCell id="kXIgV7pdSpHbNDQo-jJT-161" value="" style="rounded=1;whiteSpace=wrap;html=1;" parent="kXIgV7pdSpHbNDQo-jJT-159" vertex="1">
          <mxGeometry x="2.3275862068965516" y="2.303571428571429" width="85.34482758620689" height="38.392857142857146" as="geometry" />
        </mxCell>
        <mxCell id="kXIgV7pdSpHbNDQo-jJT-162" value="Multi-Model" style="rounded=1;whiteSpace=wrap;html=1;" parent="kXIgV7pdSpHbNDQo-jJT-159" vertex="1">
          <mxGeometry x="4.655172413793103" y="4.607142857142858" width="85.34482758620689" height="38.392857142857146" as="geometry" />
        </mxCell>
        <mxCell id="kXIgV7pdSpHbNDQo-jJT-179" value="" style="group" parent="1" vertex="1" connectable="0">
          <mxGeometry y="480" width="220" height="140" as="geometry" />
        </mxCell>
        <mxCell id="kXIgV7pdSpHbNDQo-jJT-115" value="" style="rounded=0;whiteSpace=wrap;html=1;strokeColor=#9673a6;fillColor=#e1d5e7;" parent="kXIgV7pdSpHbNDQo-jJT-179" vertex="1">
          <mxGeometry width="220" height="140" as="geometry" />
        </mxCell>
        <mxCell id="kXIgV7pdSpHbNDQo-jJT-120" value="[ready]" style="text;html=1;align=center;verticalAlign=middle;whiteSpace=wrap;rounded=0;" parent="kXIgV7pdSpHbNDQo-jJT-179" vertex="1">
          <mxGeometry x="134" y="109.69608436338488" width="60" height="36.30391563661511" as="geometry" />
        </mxCell>
        <mxCell id="kXIgV7pdSpHbNDQo-jJT-121" value="&lt;br&gt;Multi-Model output" style="shape=document;whiteSpace=wrap;html=1;boundedLbl=1;" parent="kXIgV7pdSpHbNDQo-jJT-179" vertex="1">
          <mxGeometry x="10" y="61.71514564785197" width="70" height="72.60783127323022" as="geometry" />
        </mxCell>
        <mxCell id="kXIgV7pdSpHbNDQo-jJT-122" style="edgeStyle=orthogonalEdgeStyle;rounded=0;orthogonalLoop=1;jettySize=auto;html=1;entryX=1;entryY=0.5;entryDx=0;entryDy=0;" parent="kXIgV7pdSpHbNDQo-jJT-179" source="kXIgV7pdSpHbNDQo-jJT-119" target="kXIgV7pdSpHbNDQo-jJT-121" edge="1">
          <mxGeometry relative="1" as="geometry" />
        </mxCell>
        <mxCell id="kXIgV7pdSpHbNDQo-jJT-123" value="&lt;h1 style=&quot;margin-top: 0px;&quot;&gt;&lt;font style=&quot;font-size: 14px;&quot;&gt;Output&lt;/font&gt;&lt;/h1&gt;" style="text;html=1;whiteSpace=wrap;overflow=hidden;rounded=0;" parent="kXIgV7pdSpHbNDQo-jJT-179" vertex="1">
          <mxGeometry x="82.5" width="55" height="42.354568242717626" as="geometry" />
        </mxCell>
        <mxCell id="3DHJ9fneF2AZ0MnbDjo5-16" value="" style="group" parent="kXIgV7pdSpHbNDQo-jJT-179" vertex="1" connectable="0">
          <mxGeometry x="120" y="69.2109940357852" width="90" height="52.03561241248166" as="geometry" />
        </mxCell>
        <mxCell id="kXIgV7pdSpHbNDQo-jJT-117" value="" style="rounded=1;whiteSpace=wrap;html=1;" parent="3DHJ9fneF2AZ0MnbDjo5-16" vertex="1">
          <mxGeometry width="85.34482758620689" height="46.46036822543005" as="geometry" />
        </mxCell>
        <mxCell id="kXIgV7pdSpHbNDQo-jJT-118" value="" style="rounded=1;whiteSpace=wrap;html=1;" parent="3DHJ9fneF2AZ0MnbDjo5-16" vertex="1">
          <mxGeometry x="2.3275862068965516" y="2.7876220935258034" width="85.34482758620689" height="46.46036822543005" as="geometry" />
        </mxCell>
        <mxCell id="kXIgV7pdSpHbNDQo-jJT-119" value="Multi-Model" style="rounded=1;whiteSpace=wrap;html=1;" parent="3DHJ9fneF2AZ0MnbDjo5-16" vertex="1">
          <mxGeometry x="4.655172413793103" y="5.575244187051607" width="85.34482758620689" height="46.46036822543005" as="geometry" />
        </mxCell>
        <mxCell id="3DHJ9fneF2AZ0MnbDjo5-17" value="K" style="shape=waypoint;sketch=0;fillStyle=solid;size=6;pointerEvents=1;points=[];fillColor=none;resizable=0;rotatable=0;perimeter=centerPerimeter;snapToPoint=1;strokeWidth=12;fontColor=#FFFFFF;fontSize=16;" parent="3DHJ9fneF2AZ0MnbDjo5-16" vertex="1">
          <mxGeometry x="-5.684341886080802e-14" y="-14.42099403578527" width="20" height="20" as="geometry" />
        </mxCell>
        <mxCell id="3DHJ9fneF2AZ0MnbDjo5-18" value="L" style="shape=waypoint;sketch=0;fillStyle=solid;size=6;pointerEvents=1;points=[];fillColor=none;resizable=0;rotatable=0;perimeter=centerPerimeter;snapToPoint=1;strokeWidth=12;fontColor=#FFFFFF;fontSize=16;" parent="kXIgV7pdSpHbNDQo-jJT-179" vertex="1">
          <mxGeometry x="9.999999999999943" y="49.20999999999991" width="20" height="20" as="geometry" />
        </mxCell>
        <mxCell id="kXIgV7pdSpHbNDQo-jJT-192" style="edgeStyle=orthogonalEdgeStyle;rounded=0;orthogonalLoop=1;jettySize=auto;html=1;entryX=0;entryY=0.75;entryDx=0;entryDy=0;fillColor=#008a00;strokeColor=#005700;" parent="1" source="kXIgV7pdSpHbNDQo-jJT-180" target="kXIgV7pdSpHbNDQo-jJT-137" edge="1">
          <mxGeometry relative="1" as="geometry" />
        </mxCell>
        <mxCell id="kXIgV7pdSpHbNDQo-jJT-193" value="&lt;font color=&quot;#005700&quot;&gt;yes&lt;/font&gt;" style="edgeLabel;html=1;align=center;verticalAlign=middle;resizable=0;points=[];labelBackgroundColor=#D5E8D4;" parent="kXIgV7pdSpHbNDQo-jJT-192" vertex="1" connectable="0">
          <mxGeometry x="-0.1294" relative="1" as="geometry">
            <mxPoint as="offset" />
          </mxGeometry>
        </mxCell>
        <mxCell id="kXIgV7pdSpHbNDQo-jJT-195" style="edgeStyle=orthogonalEdgeStyle;rounded=0;orthogonalLoop=1;jettySize=auto;html=1;fillColor=#a20025;strokeColor=#6F0000;" parent="1" source="kXIgV7pdSpHbNDQo-jJT-180" target="kXIgV7pdSpHbNDQo-jJT-119" edge="1">
          <mxGeometry relative="1" as="geometry" />
        </mxCell>
        <mxCell id="pGZsExtcGTRbsrbiiwgz-1" value="&lt;font color=&quot;#990000&quot;&gt;no&lt;/font&gt;" style="edgeStyle=orthogonalEdgeStyle;rounded=0;orthogonalLoop=1;jettySize=auto;html=1;strokeColor=#990000;" parent="1" source="kXIgV7pdSpHbNDQo-jJT-180" target="kXIgV7pdSpHbNDQo-jJT-119" edge="1">
          <mxGeometry x="0.0003" relative="1" as="geometry">
            <mxPoint as="offset" />
          </mxGeometry>
        </mxCell>
        <mxCell id="kXIgV7pdSpHbNDQo-jJT-180" value="remaining &lt;br&gt;files?" style="rhombus;whiteSpace=wrap;html=1;" parent="1" vertex="1">
          <mxGeometry x="310" y="547" width="90" height="62" as="geometry" />
        </mxCell>
        <mxCell id="kXIgV7pdSpHbNDQo-jJT-187" style="edgeStyle=orthogonalEdgeStyle;rounded=0;orthogonalLoop=1;jettySize=auto;html=1;entryX=0.5;entryY=0;entryDx=0;entryDy=0;fillColor=#a20025;strokeColor=#6F0000;" parent="1" source="kXIgV7pdSpHbNDQo-jJT-106" target="kXIgV7pdSpHbNDQo-jJT-153" edge="1">
          <mxGeometry relative="1" as="geometry" />
        </mxCell>
        <mxCell id="kXIgV7pdSpHbNDQo-jJT-197" value="no" style="edgeLabel;html=1;align=center;verticalAlign=middle;resizable=0;points=[];fontColor=#990000;labelBackgroundColor=#D5E8D4;" parent="kXIgV7pdSpHbNDQo-jJT-187" vertex="1" connectable="0">
          <mxGeometry x="-0.6698" y="-1" relative="1" as="geometry">
            <mxPoint x="1" y="33" as="offset" />
          </mxGeometry>
        </mxCell>
        <mxCell id="kXIgV7pdSpHbNDQo-jJT-188" style="edgeStyle=orthogonalEdgeStyle;rounded=0;orthogonalLoop=1;jettySize=auto;html=1;entryX=1;entryY=0.5;entryDx=0;entryDy=0;" parent="1" source="kXIgV7pdSpHbNDQo-jJT-153" target="kXIgV7pdSpHbNDQo-jJT-156" edge="1">
          <mxGeometry relative="1" as="geometry" />
        </mxCell>
        <mxCell id="3DHJ9fneF2AZ0MnbDjo5-1" value="A" style="shape=waypoint;sketch=0;fillStyle=solid;size=6;pointerEvents=1;points=[];fillColor=none;resizable=0;rotatable=0;perimeter=centerPerimeter;snapToPoint=1;strokeWidth=12;fontColor=#FFFFFF;fontSize=16;" parent="1" vertex="1">
          <mxGeometry x="18" y="363" width="20" height="20" as="geometry" />
        </mxCell>
        <mxCell id="3DHJ9fneF2AZ0MnbDjo5-2" value="B" style="shape=waypoint;sketch=0;fillStyle=solid;size=6;pointerEvents=1;points=[];fillColor=none;resizable=0;rotatable=0;perimeter=centerPerimeter;snapToPoint=1;strokeWidth=12;fontColor=#FFFFFF;fontSize=16;" parent="1" vertex="1">
          <mxGeometry x="175" y="363" width="20" height="20" as="geometry" />
        </mxCell>
        <mxCell id="3DHJ9fneF2AZ0MnbDjo5-3" value="C" style="shape=waypoint;sketch=0;fillStyle=solid;size=6;pointerEvents=1;points=[];fillColor=none;resizable=0;rotatable=0;perimeter=centerPerimeter;snapToPoint=1;strokeWidth=12;fontColor=#FFFFFF;fontSize=16;" parent="1" vertex="1">
          <mxGeometry x="300" y="370.5" width="20" height="20" as="geometry" />
        </mxCell>
        <mxCell id="3DHJ9fneF2AZ0MnbDjo5-5" value="D" style="shape=waypoint;sketch=0;fillStyle=solid;size=6;pointerEvents=1;points=[];fillColor=none;resizable=0;rotatable=0;perimeter=centerPerimeter;snapToPoint=1;strokeWidth=12;fontColor=#FFFFFF;fontSize=16;" parent="1" vertex="1">
          <mxGeometry x="493" y="370.5" width="20" height="20" as="geometry" />
        </mxCell>
        <mxCell id="3DHJ9fneF2AZ0MnbDjo5-6" value="E" style="shape=waypoint;sketch=0;fillStyle=solid;size=6;pointerEvents=1;points=[];fillColor=none;resizable=0;rotatable=0;perimeter=centerPerimeter;snapToPoint=1;strokeWidth=12;fontColor=#FFFFFF;fontSize=16;" parent="1" vertex="1">
          <mxGeometry x="757" y="360" width="20" height="20" as="geometry" />
        </mxCell>
        <mxCell id="3DHJ9fneF2AZ0MnbDjo5-7" value="F" style="shape=waypoint;sketch=0;fillStyle=solid;size=6;pointerEvents=1;points=[];fillColor=none;resizable=0;rotatable=0;perimeter=centerPerimeter;snapToPoint=1;strokeWidth=12;fontColor=#FFFFFF;fontSize=16;" parent="1" vertex="1">
          <mxGeometry x="792" y="530" width="20" height="20" as="geometry" />
        </mxCell>
        <mxCell id="3DHJ9fneF2AZ0MnbDjo5-8" value="G" style="shape=waypoint;sketch=0;fillStyle=solid;size=6;pointerEvents=1;points=[];fillColor=none;resizable=0;rotatable=0;perimeter=centerPerimeter;snapToPoint=1;strokeWidth=12;fontColor=#FFFFFF;fontSize=16;" parent="1" vertex="1">
          <mxGeometry x="592" y="528" width="20" height="20" as="geometry" />
        </mxCell>
        <mxCell id="3DHJ9fneF2AZ0MnbDjo5-9" value="H" style="shape=waypoint;sketch=0;fillStyle=solid;size=6;pointerEvents=1;points=[];fillColor=none;resizable=0;rotatable=0;perimeter=centerPerimeter;snapToPoint=1;strokeWidth=12;fontColor=#FFFFFF;fontSize=16;" parent="1" vertex="1">
          <mxGeometry x="450" y="530" width="20" height="20" as="geometry" />
        </mxCell>
        <mxCell id="3DHJ9fneF2AZ0MnbDjo5-11" value="J" style="shape=waypoint;sketch=0;fillStyle=solid;size=6;pointerEvents=1;points=[];fillColor=none;resizable=0;rotatable=0;perimeter=centerPerimeter;snapToPoint=1;strokeWidth=12;fontColor=#FFFFFF;fontSize=16;" parent="1" vertex="1">
          <mxGeometry x="319.99999999999994" y="540" width="20" height="20" as="geometry" />
        </mxCell>
        <mxCell id="3DHJ9fneF2AZ0MnbDjo5-10" value="I" style="shape=waypoint;sketch=0;fillStyle=solid;size=6;pointerEvents=1;points=[];fillColor=none;resizable=0;rotatable=0;perimeter=centerPerimeter;snapToPoint=1;strokeWidth=12;fontColor=#FFFFFF;fontSize=16;" parent="1" vertex="1">
          <mxGeometry x="344.65999999999997" y="473.8" width="20" height="20" as="geometry" />
        </mxCell>
        <mxCell id="3DHJ9fneF2AZ0MnbDjo5-15" style="edgeStyle=orthogonalEdgeStyle;rounded=0;orthogonalLoop=1;jettySize=auto;html=1;exitX=0;exitY=0.5;exitDx=0;exitDy=0;entryX=0.5;entryY=0;entryDx=0;entryDy=0;" parent="1" source="kXIgV7pdSpHbNDQo-jJT-160" target="kXIgV7pdSpHbNDQo-jJT-180" edge="1">
          <mxGeometry relative="1" as="geometry">
            <Array as="points">
              <mxPoint x="355" y="504" />
            </Array>
          </mxGeometry>
        </mxCell>
        <mxCell id="FrFTshlV5z5hL1M2k67Q-1" value="" style="rounded=0;whiteSpace=wrap;html=1;fillColor=#FFFFCC;strokeColor=default;" vertex="1" parent="1">
          <mxGeometry y="800" width="220" height="100" as="geometry" />
        </mxCell>
        <mxCell id="FrFTshlV5z5hL1M2k67Q-2" value="User&lt;div&gt;Task&lt;/div&gt;" style="shape=card;whiteSpace=wrap;html=1;" vertex="1" parent="1">
          <mxGeometry x="18" y="820.5" width="60" height="65" as="geometry" />
        </mxCell>
        <mxCell id="FrFTshlV5z5hL1M2k67Q-3" value="&lt;h1&gt;&lt;font style=&quot;font-size: 24px;&quot;&gt;SFCL (Simulate First, Compute Later) - with Meta&lt;/font&gt;&lt;/h1&gt;" style="text;html=1;strokeColor=none;fillColor=none;spacing=5;spacingTop=-20;whiteSpace=wrap;overflow=hidden;rounded=0;" vertex="1" parent="1">
          <mxGeometry x="130" y="750" width="640" height="40" as="geometry" />
        </mxCell>
        <mxCell id="FrFTshlV5z5hL1M2k67Q-4" value="First Model" style="shape=hexagon;perimeter=hexagonPerimeter2;whiteSpace=wrap;html=1;fixedSize=1;" vertex="1" parent="1">
          <mxGeometry x="115" y="827.5" width="80" height="55" as="geometry" />
        </mxCell>
        <mxCell id="FrFTshlV5z5hL1M2k67Q-5" value="&lt;h1 style=&quot;margin-top: 0px;&quot;&gt;&lt;font style=&quot;font-size: 14px;&quot;&gt;Setup&lt;/font&gt;&lt;/h1&gt;" style="text;html=1;whiteSpace=wrap;overflow=hidden;rounded=0;" vertex="1" parent="1">
          <mxGeometry x="87.5" y="790" width="45" height="35" as="geometry" />
        </mxCell>
        <mxCell id="FrFTshlV5z5hL1M2k67Q-6" value="[initialize]" style="text;html=1;align=center;verticalAlign=middle;whiteSpace=wrap;rounded=0;" vertex="1" parent="1">
          <mxGeometry x="125" y="876" width="60" height="30" as="geometry" />
        </mxCell>
        <mxCell id="FrFTshlV5z5hL1M2k67Q-7" value="" style="rounded=0;whiteSpace=wrap;html=1;fillColor=#DAE8FC;" vertex="1" parent="1">
          <mxGeometry x="290" y="800" width="530" height="100" as="geometry" />
        </mxCell>
        <mxCell id="FrFTshlV5z5hL1M2k67Q-8" style="edgeStyle=orthogonalEdgeStyle;rounded=0;orthogonalLoop=1;jettySize=auto;html=1;" edge="1" parent="1" source="FrFTshlV5z5hL1M2k67Q-9" target="FrFTshlV5z5hL1M2k67Q-11">
          <mxGeometry relative="1" as="geometry" />
        </mxCell>
        <mxCell id="FrFTshlV5z5hL1M2k67Q-9" value="Run (next) Model" style="rounded=1;whiteSpace=wrap;html=1;" vertex="1" parent="1">
          <mxGeometry x="310" y="833" width="90" height="40" as="geometry" />
        </mxCell>
        <mxCell id="FrFTshlV5z5hL1M2k67Q-10" style="edgeStyle=orthogonalEdgeStyle;rounded=0;orthogonalLoop=1;jettySize=auto;html=1;exitX=1;exitY=0.5;exitDx=0;exitDy=0;" edge="1" parent="1" source="FrFTshlV5z5hL1M2k67Q-11" target="FrFTshlV5z5hL1M2k67Q-14">
          <mxGeometry relative="1" as="geometry" />
        </mxCell>
        <mxCell id="FrFTshlV5z5hL1M2k67Q-11" value="Save simulation results on disk" style="rounded=1;whiteSpace=wrap;html=1;" vertex="1" parent="1">
          <mxGeometry x="510" y="833" width="90" height="40" as="geometry" />
        </mxCell>
        <mxCell id="FrFTshlV5z5hL1M2k67Q-12" style="edgeStyle=orthogonalEdgeStyle;rounded=0;orthogonalLoop=1;jettySize=auto;html=1;fillColor=#008a00;strokeColor=#005700;" edge="1" parent="1" source="FrFTshlV5z5hL1M2k67Q-14" target="FrFTshlV5z5hL1M2k67Q-9">
          <mxGeometry relative="1" as="geometry">
            <Array as="points">
              <mxPoint x="355" y="890" />
            </Array>
          </mxGeometry>
        </mxCell>
        <mxCell id="FrFTshlV5z5hL1M2k67Q-13" value="yes" style="edgeLabel;html=1;align=center;verticalAlign=middle;resizable=0;points=[];labelBackgroundColor=#DAE8FC;fontColor=#006600;" vertex="1" connectable="0" parent="FrFTshlV5z5hL1M2k67Q-12">
          <mxGeometry x="-0.0676" y="1" relative="1" as="geometry">
            <mxPoint y="-4" as="offset" />
          </mxGeometry>
        </mxCell>
        <mxCell id="FrFTshlV5z5hL1M2k67Q-14" value="remaining models?" style="rhombus;whiteSpace=wrap;html=1;" vertex="1" parent="1">
          <mxGeometry x="722" y="813" width="90" height="80" as="geometry" />
        </mxCell>
        <mxCell id="FrFTshlV5z5hL1M2k67Q-15" value="&lt;h1 style=&quot;margin-top: 0px;&quot;&gt;&lt;font style=&quot;font-size: 14px;&quot;&gt;Simulate&lt;/font&gt;&lt;/h1&gt;" style="text;html=1;whiteSpace=wrap;overflow=hidden;rounded=0;" vertex="1" parent="1">
          <mxGeometry x="523.75" y="790" width="62.5" height="40" as="geometry" />
        </mxCell>
        <mxCell id="FrFTshlV5z5hL1M2k67Q-16" style="edgeStyle=orthogonalEdgeStyle;rounded=0;orthogonalLoop=1;jettySize=auto;html=1;entryX=0.008;entryY=0.421;entryDx=0;entryDy=0;entryPerimeter=0;" edge="1" parent="1" source="FrFTshlV5z5hL1M2k67Q-1" target="FrFTshlV5z5hL1M2k67Q-9">
          <mxGeometry relative="1" as="geometry">
            <mxPoint x="290" y="850" as="targetPoint" />
          </mxGeometry>
        </mxCell>
        <mxCell id="FrFTshlV5z5hL1M2k67Q-17" value="" style="rounded=0;whiteSpace=wrap;html=1;fillColor=#d5e8d4;strokeColor=#82b366;" vertex="1" parent="1">
          <mxGeometry x="290" y="930" width="530" height="140" as="geometry" />
        </mxCell>
        <mxCell id="FrFTshlV5z5hL1M2k67Q-18" value="&lt;h1 style=&quot;margin-top: 0px;&quot;&gt;&lt;font style=&quot;font-size: 14px;&quot;&gt;Compute Multi-Model&lt;/font&gt;&lt;/h1&gt;" style="text;html=1;whiteSpace=wrap;overflow=hidden;rounded=0;" vertex="1" parent="1">
          <mxGeometry x="495" y="923.8" width="146.25" height="40" as="geometry" />
        </mxCell>
        <mxCell id="FrFTshlV5z5hL1M2k67Q-19" style="edgeStyle=orthogonalEdgeStyle;rounded=0;orthogonalLoop=1;jettySize=auto;html=1;" edge="1" parent="1" source="FrFTshlV5z5hL1M2k67Q-21" target="FrFTshlV5z5hL1M2k67Q-33">
          <mxGeometry relative="1" as="geometry">
            <Array as="points">
              <mxPoint x="505" y="961" />
            </Array>
          </mxGeometry>
        </mxCell>
        <mxCell id="FrFTshlV5z5hL1M2k67Q-20" value="append to" style="edgeLabel;html=1;align=center;verticalAlign=middle;resizable=0;points=[];labelBackgroundColor=#D5E8D4;" vertex="1" connectable="0" parent="FrFTshlV5z5hL1M2k67Q-19">
          <mxGeometry x="0.1637" y="1" relative="1" as="geometry">
            <mxPoint as="offset" />
          </mxGeometry>
        </mxCell>
        <mxCell id="FrFTshlV5z5hL1M2k67Q-21" value="Read (next) file&lt;br&gt;with results" style="rounded=1;whiteSpace=wrap;html=1;" vertex="1" parent="1">
          <mxGeometry x="460" y="999" width="90" height="40" as="geometry" />
        </mxCell>
        <mxCell id="FrFTshlV5z5hL1M2k67Q-22" value="[identify]" style="text;html=1;align=center;verticalAlign=middle;whiteSpace=wrap;rounded=0;" vertex="1" parent="1">
          <mxGeometry x="602" y="1039" width="60" height="30" as="geometry" />
        </mxCell>
        <mxCell id="FrFTshlV5z5hL1M2k67Q-23" value="" style="group" vertex="1" connectable="0" parent="1">
          <mxGeometry x="720" y="995" width="90" height="43" as="geometry" />
        </mxCell>
        <mxCell id="FrFTshlV5z5hL1M2k67Q-24" value="" style="rounded=1;whiteSpace=wrap;html=1;" vertex="1" parent="FrFTshlV5z5hL1M2k67Q-23">
          <mxGeometry width="85.34482758620689" height="38.392857142857146" as="geometry" />
        </mxCell>
        <mxCell id="FrFTshlV5z5hL1M2k67Q-25" value="" style="rounded=1;whiteSpace=wrap;html=1;" vertex="1" parent="FrFTshlV5z5hL1M2k67Q-23">
          <mxGeometry x="2.3275862068965516" y="2.303571428571429" width="85.34482758620689" height="38.392857142857146" as="geometry" />
        </mxCell>
        <mxCell id="FrFTshlV5z5hL1M2k67Q-26" value="Multi-Model" style="rounded=1;whiteSpace=wrap;html=1;" vertex="1" parent="FrFTshlV5z5hL1M2k67Q-23">
          <mxGeometry x="4.655172413793103" y="4.607142857142858" width="85.34482758620689" height="38.392857142857146" as="geometry" />
        </mxCell>
        <mxCell id="FrFTshlV5z5hL1M2k67Q-27" value="[initialize]" style="text;html=1;align=center;verticalAlign=middle;whiteSpace=wrap;rounded=0;" vertex="1" parent="1">
          <mxGeometry x="735" y="1038" width="60" height="30" as="geometry" />
        </mxCell>
        <mxCell id="FrFTshlV5z5hL1M2k67Q-28" style="edgeStyle=orthogonalEdgeStyle;rounded=0;orthogonalLoop=1;jettySize=auto;html=1;entryX=1;entryY=0.5;entryDx=0;entryDy=0;" edge="1" parent="1" source="FrFTshlV5z5hL1M2k67Q-29" target="FrFTshlV5z5hL1M2k67Q-21">
          <mxGeometry relative="1" as="geometry" />
        </mxCell>
        <mxCell id="FrFTshlV5z5hL1M2k67Q-29" value="First file &lt;br&gt;with&lt;br&gt;results" style="shape=hexagon;perimeter=hexagonPerimeter2;whiteSpace=wrap;html=1;fixedSize=1;" vertex="1" parent="1">
          <mxGeometry x="592" y="991" width="80" height="55" as="geometry" />
        </mxCell>
        <mxCell id="FrFTshlV5z5hL1M2k67Q-30" value="" style="group" vertex="1" connectable="0" parent="1">
          <mxGeometry x="360" y="935" width="90" height="43" as="geometry" />
        </mxCell>
        <mxCell id="FrFTshlV5z5hL1M2k67Q-31" value="" style="rounded=1;whiteSpace=wrap;html=1;" vertex="1" parent="FrFTshlV5z5hL1M2k67Q-30">
          <mxGeometry width="85.34482758620689" height="38.392857142857146" as="geometry" />
        </mxCell>
        <mxCell id="FrFTshlV5z5hL1M2k67Q-32" value="" style="rounded=1;whiteSpace=wrap;html=1;" vertex="1" parent="FrFTshlV5z5hL1M2k67Q-30">
          <mxGeometry x="2.3275862068965516" y="2.303571428571429" width="85.34482758620689" height="38.392857142857146" as="geometry" />
        </mxCell>
        <mxCell id="FrFTshlV5z5hL1M2k67Q-33" value="Multi-Model" style="rounded=1;whiteSpace=wrap;html=1;" vertex="1" parent="FrFTshlV5z5hL1M2k67Q-30">
          <mxGeometry x="4.655172413793103" y="4.607142857142858" width="85.34482758620689" height="38.392857142857146" as="geometry" />
        </mxCell>
        <mxCell id="FrFTshlV5z5hL1M2k67Q-34" value="" style="group" vertex="1" connectable="0" parent="1">
          <mxGeometry y="930" width="220" height="140" as="geometry" />
        </mxCell>
        <mxCell id="FrFTshlV5z5hL1M2k67Q-35" value="" style="rounded=0;whiteSpace=wrap;html=1;strokeColor=#9673a6;fillColor=#e1d5e7;" vertex="1" parent="FrFTshlV5z5hL1M2k67Q-34">
          <mxGeometry width="220" height="140" as="geometry" />
        </mxCell>
        <mxCell id="FrFTshlV5z5hL1M2k67Q-36" value="[ready]" style="text;html=1;align=center;verticalAlign=middle;whiteSpace=wrap;rounded=0;" vertex="1" parent="FrFTshlV5z5hL1M2k67Q-34">
          <mxGeometry x="134" y="109.69608436338488" width="60" height="36.30391563661511" as="geometry" />
        </mxCell>
        <mxCell id="FrFTshlV5z5hL1M2k67Q-37" value="&lt;br&gt;Multi-Model output" style="shape=document;whiteSpace=wrap;html=1;boundedLbl=1;" vertex="1" parent="FrFTshlV5z5hL1M2k67Q-34">
          <mxGeometry x="10" y="61.71514564785197" width="70" height="72.60783127323022" as="geometry" />
        </mxCell>
        <mxCell id="FrFTshlV5z5hL1M2k67Q-38" style="edgeStyle=orthogonalEdgeStyle;rounded=0;orthogonalLoop=1;jettySize=auto;html=1;entryX=1;entryY=0.5;entryDx=0;entryDy=0;" edge="1" parent="FrFTshlV5z5hL1M2k67Q-34" source="FrFTshlV5z5hL1M2k67Q-43" target="FrFTshlV5z5hL1M2k67Q-37">
          <mxGeometry relative="1" as="geometry" />
        </mxCell>
        <mxCell id="FrFTshlV5z5hL1M2k67Q-39" value="&lt;h1 style=&quot;margin-top: 0px;&quot;&gt;&lt;font style=&quot;font-size: 14px;&quot;&gt;Output Multi-Model&lt;/font&gt;&lt;/h1&gt;" style="text;html=1;whiteSpace=wrap;overflow=hidden;rounded=0;" vertex="1" parent="FrFTshlV5z5hL1M2k67Q-34">
          <mxGeometry x="40" width="140" height="42.35" as="geometry" />
        </mxCell>
        <mxCell id="FrFTshlV5z5hL1M2k67Q-40" value="" style="group" vertex="1" connectable="0" parent="FrFTshlV5z5hL1M2k67Q-34">
          <mxGeometry x="120" y="69.2109940357852" width="90" height="52.03561241248166" as="geometry" />
        </mxCell>
        <mxCell id="FrFTshlV5z5hL1M2k67Q-41" value="" style="rounded=1;whiteSpace=wrap;html=1;" vertex="1" parent="FrFTshlV5z5hL1M2k67Q-40">
          <mxGeometry width="85.34482758620689" height="46.46036822543005" as="geometry" />
        </mxCell>
        <mxCell id="FrFTshlV5z5hL1M2k67Q-42" value="" style="rounded=1;whiteSpace=wrap;html=1;" vertex="1" parent="FrFTshlV5z5hL1M2k67Q-40">
          <mxGeometry x="2.3275862068965516" y="2.7876220935258034" width="85.34482758620689" height="46.46036822543005" as="geometry" />
        </mxCell>
        <mxCell id="FrFTshlV5z5hL1M2k67Q-43" value="Multi-Model" style="rounded=1;whiteSpace=wrap;html=1;" vertex="1" parent="FrFTshlV5z5hL1M2k67Q-40">
          <mxGeometry x="4.655172413793103" y="5.575244187051607" width="85.34482758620689" height="46.46036822543005" as="geometry" />
        </mxCell>
        <mxCell id="FrFTshlV5z5hL1M2k67Q-44" value="K" style="shape=waypoint;sketch=0;fillStyle=solid;size=6;pointerEvents=1;points=[];fillColor=none;resizable=0;rotatable=0;perimeter=centerPerimeter;snapToPoint=1;strokeWidth=12;fontColor=#FFFFFF;fontSize=16;" vertex="1" parent="FrFTshlV5z5hL1M2k67Q-40">
          <mxGeometry x="-5.684341886080802e-14" y="-14.42099403578527" width="20" height="20" as="geometry" />
        </mxCell>
        <mxCell id="FrFTshlV5z5hL1M2k67Q-45" value="L" style="shape=waypoint;sketch=0;fillStyle=solid;size=6;pointerEvents=1;points=[];fillColor=none;resizable=0;rotatable=0;perimeter=centerPerimeter;snapToPoint=1;strokeWidth=12;fontColor=#FFFFFF;fontSize=16;" vertex="1" parent="FrFTshlV5z5hL1M2k67Q-34">
          <mxGeometry x="9.999999999999943" y="49.20999999999991" width="20" height="20" as="geometry" />
        </mxCell>
        <mxCell id="FrFTshlV5z5hL1M2k67Q-46" style="edgeStyle=orthogonalEdgeStyle;rounded=0;orthogonalLoop=1;jettySize=auto;html=1;entryX=0;entryY=0.75;entryDx=0;entryDy=0;fillColor=#008a00;strokeColor=#005700;" edge="1" parent="1" source="FrFTshlV5z5hL1M2k67Q-50" target="FrFTshlV5z5hL1M2k67Q-21">
          <mxGeometry relative="1" as="geometry" />
        </mxCell>
        <mxCell id="FrFTshlV5z5hL1M2k67Q-47" value="&lt;font color=&quot;#005700&quot;&gt;yes&lt;/font&gt;" style="edgeLabel;html=1;align=center;verticalAlign=middle;resizable=0;points=[];labelBackgroundColor=#D5E8D4;" vertex="1" connectable="0" parent="FrFTshlV5z5hL1M2k67Q-46">
          <mxGeometry x="-0.1294" relative="1" as="geometry">
            <mxPoint as="offset" />
          </mxGeometry>
        </mxCell>
        <mxCell id="FrFTshlV5z5hL1M2k67Q-48" style="edgeStyle=orthogonalEdgeStyle;rounded=0;orthogonalLoop=1;jettySize=auto;html=1;fillColor=#a20025;strokeColor=#6F0000;" edge="1" parent="1" source="FrFTshlV5z5hL1M2k67Q-50" target="FrFTshlV5z5hL1M2k67Q-43">
          <mxGeometry relative="1" as="geometry" />
        </mxCell>
        <mxCell id="FrFTshlV5z5hL1M2k67Q-49" value="&lt;font color=&quot;#990000&quot;&gt;no&lt;/font&gt;" style="edgeStyle=orthogonalEdgeStyle;rounded=0;orthogonalLoop=1;jettySize=auto;html=1;strokeColor=#990000;" edge="1" parent="1" source="FrFTshlV5z5hL1M2k67Q-50" target="FrFTshlV5z5hL1M2k67Q-43">
          <mxGeometry x="0.0005" relative="1" as="geometry">
            <mxPoint as="offset" />
          </mxGeometry>
        </mxCell>
        <mxCell id="FrFTshlV5z5hL1M2k67Q-50" value="remaining &lt;br&gt;files?" style="rhombus;whiteSpace=wrap;html=1;" vertex="1" parent="1">
          <mxGeometry x="310" y="997" width="90" height="62" as="geometry" />
        </mxCell>
        <mxCell id="FrFTshlV5z5hL1M2k67Q-51" style="edgeStyle=orthogonalEdgeStyle;rounded=0;orthogonalLoop=1;jettySize=auto;html=1;entryX=0.5;entryY=0;entryDx=0;entryDy=0;fillColor=#a20025;strokeColor=#6F0000;" edge="1" parent="1" source="FrFTshlV5z5hL1M2k67Q-14" target="FrFTshlV5z5hL1M2k67Q-26">
          <mxGeometry relative="1" as="geometry" />
        </mxCell>
        <mxCell id="FrFTshlV5z5hL1M2k67Q-52" value="no" style="edgeLabel;html=1;align=center;verticalAlign=middle;resizable=0;points=[];fontColor=#990000;labelBackgroundColor=#D5E8D4;" vertex="1" connectable="0" parent="FrFTshlV5z5hL1M2k67Q-51">
          <mxGeometry x="-0.6698" y="-1" relative="1" as="geometry">
            <mxPoint x="1" y="33" as="offset" />
          </mxGeometry>
        </mxCell>
        <mxCell id="FrFTshlV5z5hL1M2k67Q-53" style="edgeStyle=orthogonalEdgeStyle;rounded=0;orthogonalLoop=1;jettySize=auto;html=1;entryX=1;entryY=0.5;entryDx=0;entryDy=0;" edge="1" parent="1" source="FrFTshlV5z5hL1M2k67Q-26" target="FrFTshlV5z5hL1M2k67Q-29">
          <mxGeometry relative="1" as="geometry" />
        </mxCell>
        <mxCell id="FrFTshlV5z5hL1M2k67Q-54" value="A" style="shape=waypoint;sketch=0;fillStyle=solid;size=6;pointerEvents=1;points=[];fillColor=none;resizable=0;rotatable=0;perimeter=centerPerimeter;snapToPoint=1;strokeWidth=12;fontColor=#FFFFFF;fontSize=16;" vertex="1" parent="1">
          <mxGeometry x="18" y="813" width="20" height="20" as="geometry" />
        </mxCell>
        <mxCell id="FrFTshlV5z5hL1M2k67Q-55" value="B" style="shape=waypoint;sketch=0;fillStyle=solid;size=6;pointerEvents=1;points=[];fillColor=none;resizable=0;rotatable=0;perimeter=centerPerimeter;snapToPoint=1;strokeWidth=12;fontColor=#FFFFFF;fontSize=16;" vertex="1" parent="1">
          <mxGeometry x="175" y="813" width="20" height="20" as="geometry" />
        </mxCell>
        <mxCell id="FrFTshlV5z5hL1M2k67Q-56" value="C" style="shape=waypoint;sketch=0;fillStyle=solid;size=6;pointerEvents=1;points=[];fillColor=none;resizable=0;rotatable=0;perimeter=centerPerimeter;snapToPoint=1;strokeWidth=12;fontColor=#FFFFFF;fontSize=16;" vertex="1" parent="1">
          <mxGeometry x="300" y="820.5" width="20" height="20" as="geometry" />
        </mxCell>
        <mxCell id="FrFTshlV5z5hL1M2k67Q-57" value="D" style="shape=waypoint;sketch=0;fillStyle=solid;size=6;pointerEvents=1;points=[];fillColor=none;resizable=0;rotatable=0;perimeter=centerPerimeter;snapToPoint=1;strokeWidth=12;fontColor=#FFFFFF;fontSize=16;" vertex="1" parent="1">
          <mxGeometry x="493" y="820.5" width="20" height="20" as="geometry" />
        </mxCell>
        <mxCell id="FrFTshlV5z5hL1M2k67Q-58" value="E" style="shape=waypoint;sketch=0;fillStyle=solid;size=6;pointerEvents=1;points=[];fillColor=none;resizable=0;rotatable=0;perimeter=centerPerimeter;snapToPoint=1;strokeWidth=12;fontColor=#FFFFFF;fontSize=16;" vertex="1" parent="1">
          <mxGeometry x="757" y="810" width="20" height="20" as="geometry" />
        </mxCell>
        <mxCell id="FrFTshlV5z5hL1M2k67Q-59" value="F" style="shape=waypoint;sketch=0;fillStyle=solid;size=6;pointerEvents=1;points=[];fillColor=none;resizable=0;rotatable=0;perimeter=centerPerimeter;snapToPoint=1;strokeWidth=12;fontColor=#FFFFFF;fontSize=16;" vertex="1" parent="1">
          <mxGeometry x="792" y="980" width="20" height="20" as="geometry" />
        </mxCell>
        <mxCell id="FrFTshlV5z5hL1M2k67Q-60" value="G" style="shape=waypoint;sketch=0;fillStyle=solid;size=6;pointerEvents=1;points=[];fillColor=none;resizable=0;rotatable=0;perimeter=centerPerimeter;snapToPoint=1;strokeWidth=12;fontColor=#FFFFFF;fontSize=16;" vertex="1" parent="1">
          <mxGeometry x="592" y="978" width="20" height="20" as="geometry" />
        </mxCell>
        <mxCell id="FrFTshlV5z5hL1M2k67Q-61" value="H" style="shape=waypoint;sketch=0;fillStyle=solid;size=6;pointerEvents=1;points=[];fillColor=none;resizable=0;rotatable=0;perimeter=centerPerimeter;snapToPoint=1;strokeWidth=12;fontColor=#FFFFFF;fontSize=16;" vertex="1" parent="1">
          <mxGeometry x="450" y="980" width="20" height="20" as="geometry" />
        </mxCell>
        <mxCell id="FrFTshlV5z5hL1M2k67Q-62" value="J" style="shape=waypoint;sketch=0;fillStyle=solid;size=6;pointerEvents=1;points=[];fillColor=none;resizable=0;rotatable=0;perimeter=centerPerimeter;snapToPoint=1;strokeWidth=12;fontColor=#FFFFFF;fontSize=16;" vertex="1" parent="1">
          <mxGeometry x="319.99999999999994" y="990" width="20" height="20" as="geometry" />
        </mxCell>
        <mxCell id="FrFTshlV5z5hL1M2k67Q-63" value="I" style="shape=waypoint;sketch=0;fillStyle=solid;size=6;pointerEvents=1;points=[];fillColor=none;resizable=0;rotatable=0;perimeter=centerPerimeter;snapToPoint=1;strokeWidth=12;fontColor=#FFFFFF;fontSize=16;" vertex="1" parent="1">
          <mxGeometry x="344.65999999999997" y="923.8" width="20" height="20" as="geometry" />
        </mxCell>
        <mxCell id="FrFTshlV5z5hL1M2k67Q-64" style="edgeStyle=orthogonalEdgeStyle;rounded=0;orthogonalLoop=1;jettySize=auto;html=1;exitX=0;exitY=0.5;exitDx=0;exitDy=0;entryX=0.5;entryY=0;entryDx=0;entryDy=0;" edge="1" parent="1" source="FrFTshlV5z5hL1M2k67Q-31" target="FrFTshlV5z5hL1M2k67Q-50">
          <mxGeometry relative="1" as="geometry">
            <Array as="points">
              <mxPoint x="355" y="954" />
            </Array>
          </mxGeometry>
        </mxCell>
        <mxCell id="FrFTshlV5z5hL1M2k67Q-65" value="" style="rounded=0;whiteSpace=wrap;html=1;fillColor=#d5e8d4;strokeColor=#82b366;" vertex="1" parent="1">
          <mxGeometry x="430" y="1100" width="390" height="160" as="geometry" />
        </mxCell>
        <mxCell id="FrFTshlV5z5hL1M2k67Q-75" value="&lt;h1 style=&quot;margin-top: 0px;&quot;&gt;&lt;font style=&quot;font-size: 14px;&quot;&gt;Compute Meta-Model&lt;/font&gt;&lt;/h1&gt;" style="text;html=1;whiteSpace=wrap;overflow=hidden;rounded=0;" vertex="1" parent="1">
          <mxGeometry x="570" y="1090" width="146.25" height="40" as="geometry" />
        </mxCell>
        <mxCell id="FrFTshlV5z5hL1M2k67Q-76" value="" style="group" vertex="1" connectable="0" parent="1">
          <mxGeometry x="587" y="1130" width="90" height="70" as="geometry" />
        </mxCell>
        <mxCell id="FrFTshlV5z5hL1M2k67Q-71" value="Meta-Model" style="ellipse;whiteSpace=wrap;html=1;shadow=0;" vertex="1" parent="FrFTshlV5z5hL1M2k67Q-76">
          <mxGeometry y="10" width="90" height="60" as="geometry" />
        </mxCell>
        <mxCell id="FrFTshlV5z5hL1M2k67Q-74" value="N" style="shape=waypoint;sketch=0;fillStyle=solid;size=6;pointerEvents=1;points=[];fillColor=none;resizable=0;rotatable=0;perimeter=centerPerimeter;snapToPoint=1;strokeWidth=12;fontColor=#FFFFFF;fontSize=16;" vertex="1" parent="FrFTshlV5z5hL1M2k67Q-76">
          <mxGeometry x="78" y="9" width="20" height="20" as="geometry" />
        </mxCell>
        <mxCell id="FrFTshlV5z5hL1M2k67Q-124" value="[initialize]" style="text;html=1;align=center;verticalAlign=middle;whiteSpace=wrap;rounded=0;" vertex="1" parent="FrFTshlV5z5hL1M2k67Q-76">
          <mxGeometry x="15" y="-12" width="60" height="30" as="geometry" />
        </mxCell>
        <mxCell id="FrFTshlV5z5hL1M2k67Q-169" style="edgeStyle=orthogonalEdgeStyle;rounded=0;orthogonalLoop=1;jettySize=auto;html=1;exitX=1;exitY=1;exitDx=0;exitDy=0;entryX=0.75;entryY=1;entryDx=0;entryDy=0;" edge="1" parent="1" source="FrFTshlV5z5hL1M2k67Q-89" target="FrFTshlV5z5hL1M2k67Q-102">
          <mxGeometry relative="1" as="geometry" />
        </mxCell>
        <mxCell id="FrFTshlV5z5hL1M2k67Q-170" value="append to" style="edgeLabel;html=1;align=center;verticalAlign=middle;resizable=0;points=[];labelBackgroundColor=#D5E8D4;" vertex="1" connectable="0" parent="FrFTshlV5z5hL1M2k67Q-169">
          <mxGeometry x="-0.2741" y="2" relative="1" as="geometry">
            <mxPoint as="offset" />
          </mxGeometry>
        </mxCell>
        <mxCell id="FrFTshlV5z5hL1M2k67Q-89" value="Compute &lt;br&gt;Meta-&lt;br&gt;Simulation" style="ellipse;whiteSpace=wrap;html=1;shadow=0;" vertex="1" parent="1">
          <mxGeometry x="445" y="1195" width="90" height="60" as="geometry" />
        </mxCell>
        <mxCell id="FrFTshlV5z5hL1M2k67Q-99" value="" style="group" vertex="1" connectable="0" parent="1">
          <mxGeometry x="720" y="1140.0009940357852" width="90" height="52.03561241248166" as="geometry" />
        </mxCell>
        <mxCell id="FrFTshlV5z5hL1M2k67Q-100" value="" style="rounded=1;whiteSpace=wrap;html=1;" vertex="1" parent="FrFTshlV5z5hL1M2k67Q-99">
          <mxGeometry width="85.34482758620689" height="46.46036822543005" as="geometry" />
        </mxCell>
        <mxCell id="FrFTshlV5z5hL1M2k67Q-101" value="" style="rounded=1;whiteSpace=wrap;html=1;" vertex="1" parent="FrFTshlV5z5hL1M2k67Q-99">
          <mxGeometry x="2.3275862068965516" y="2.7876220935258034" width="85.34482758620689" height="46.46036822543005" as="geometry" />
        </mxCell>
        <mxCell id="FrFTshlV5z5hL1M2k67Q-102" value="Multi-Model" style="rounded=1;whiteSpace=wrap;html=1;" vertex="1" parent="FrFTshlV5z5hL1M2k67Q-99">
          <mxGeometry x="4.655172413793103" y="5.575244187051607" width="85.34482758620689" height="46.46036822543005" as="geometry" />
        </mxCell>
        <mxCell id="FrFTshlV5z5hL1M2k67Q-104" style="edgeStyle=orthogonalEdgeStyle;rounded=0;orthogonalLoop=1;jettySize=auto;html=1;exitX=0.5;exitY=1;exitDx=0;exitDy=0;entryX=0.5;entryY=1;entryDx=0;entryDy=0;" edge="1" parent="1" source="FrFTshlV5z5hL1M2k67Q-102" target="FrFTshlV5z5hL1M2k67Q-71">
          <mxGeometry relative="1" as="geometry" />
        </mxCell>
        <mxCell id="FrFTshlV5z5hL1M2k67Q-105" value="part of" style="edgeLabel;html=1;align=center;verticalAlign=middle;resizable=0;points=[];labelBackgroundColor=#D5E8D4;" vertex="1" connectable="0" parent="FrFTshlV5z5hL1M2k67Q-104">
          <mxGeometry x="0.2926" y="1" relative="1" as="geometry">
            <mxPoint x="23" as="offset" />
          </mxGeometry>
        </mxCell>
        <mxCell id="FrFTshlV5z5hL1M2k67Q-103" value="M" style="shape=waypoint;sketch=0;fillStyle=solid;size=6;pointerEvents=1;points=[];fillColor=none;resizable=0;rotatable=0;perimeter=centerPerimeter;snapToPoint=1;strokeWidth=12;fontColor=#FFFFFF;fontSize=16;" vertex="1" parent="1">
          <mxGeometry x="790" y="1125.58" width="20" height="20" as="geometry" />
        </mxCell>
        <mxCell id="FrFTshlV5z5hL1M2k67Q-167" style="edgeStyle=orthogonalEdgeStyle;rounded=0;orthogonalLoop=1;jettySize=auto;html=1;entryX=0.5;entryY=0;entryDx=0;entryDy=0;strokeColor=#990000;" edge="1" parent="1" source="FrFTshlV5z5hL1M2k67Q-110" target="FrFTshlV5z5hL1M2k67Q-89">
          <mxGeometry relative="1" as="geometry" />
        </mxCell>
        <mxCell id="FrFTshlV5z5hL1M2k67Q-168" value="no" style="edgeLabel;html=1;align=center;verticalAlign=middle;resizable=0;points=[];fontColor=#990000;labelBackgroundColor=#D5E8D4;" vertex="1" connectable="0" parent="FrFTshlV5z5hL1M2k67Q-167">
          <mxGeometry x="0.2507" relative="1" as="geometry">
            <mxPoint y="4" as="offset" />
          </mxGeometry>
        </mxCell>
        <mxCell id="FrFTshlV5z5hL1M2k67Q-110" value="Meta-Model&lt;br&gt;ready?" style="rhombus;whiteSpace=wrap;html=1;" vertex="1" parent="1">
          <mxGeometry x="440" y="1104" width="100" height="64.42" as="geometry" />
        </mxCell>
        <mxCell id="FrFTshlV5z5hL1M2k67Q-149" style="edgeStyle=orthogonalEdgeStyle;rounded=0;orthogonalLoop=1;jettySize=auto;html=1;entryX=1;entryY=0.5;entryDx=0;entryDy=0;" edge="1" parent="1" source="FrFTshlV5z5hL1M2k67Q-71" target="FrFTshlV5z5hL1M2k67Q-110">
          <mxGeometry relative="1" as="geometry" />
        </mxCell>
        <mxCell id="FrFTshlV5z5hL1M2k67Q-171" style="edgeStyle=orthogonalEdgeStyle;rounded=0;orthogonalLoop=1;jettySize=auto;html=1;exitX=0.75;exitY=1;exitDx=0;exitDy=0;entryX=0.5;entryY=0;entryDx=0;entryDy=0;" edge="1" parent="1" source="FrFTshlV5z5hL1M2k67Q-43" target="FrFTshlV5z5hL1M2k67Q-102">
          <mxGeometry relative="1" as="geometry">
            <Array as="points">
              <mxPoint x="189" y="1080" />
              <mxPoint x="767" y="1080" />
            </Array>
          </mxGeometry>
        </mxCell>
        <mxCell id="FrFTshlV5z5hL1M2k67Q-172" value="O" style="shape=waypoint;sketch=0;fillStyle=solid;size=6;pointerEvents=1;points=[];fillColor=none;resizable=0;rotatable=0;perimeter=centerPerimeter;snapToPoint=1;strokeWidth=12;fontColor=#FFFFFF;fontSize=16;" vertex="1" parent="1">
          <mxGeometry x="480" y="1090" width="20" height="20" as="geometry" />
        </mxCell>
        <mxCell id="FrFTshlV5z5hL1M2k67Q-173" value="P" style="shape=waypoint;sketch=0;fillStyle=solid;size=6;pointerEvents=1;points=[];fillColor=none;resizable=0;rotatable=0;perimeter=centerPerimeter;snapToPoint=1;strokeWidth=12;fontColor=#FFFFFF;fontSize=16;" vertex="1" parent="1">
          <mxGeometry x="520" y="1190" width="20" height="20" as="geometry" />
        </mxCell>
        <mxCell id="FrFTshlV5z5hL1M2k67Q-174" style="edgeStyle=orthogonalEdgeStyle;rounded=0;orthogonalLoop=1;jettySize=auto;html=1;entryX=1;entryY=0.5;entryDx=0;entryDy=0;strokeColor=#005700;" edge="1" parent="1" source="FrFTshlV5z5hL1M2k67Q-110" target="FrFTshlV5z5hL1M2k67Q-164">
          <mxGeometry relative="1" as="geometry" />
        </mxCell>
        <mxCell id="FrFTshlV5z5hL1M2k67Q-175" value="yes" style="edgeLabel;html=1;align=center;verticalAlign=middle;resizable=0;points=[];fontColor=#005700;" vertex="1" connectable="0" parent="FrFTshlV5z5hL1M2k67Q-174">
          <mxGeometry x="0.0741" y="1" relative="1" as="geometry">
            <mxPoint x="-1" as="offset" />
          </mxGeometry>
        </mxCell>
        <mxCell id="FrFTshlV5z5hL1M2k67Q-192" style="edgeStyle=orthogonalEdgeStyle;rounded=0;orthogonalLoop=1;jettySize=auto;html=1;exitX=0.5;exitY=0;exitDx=0;exitDy=0;entryX=0.487;entryY=0.87;entryDx=0;entryDy=0;entryPerimeter=0;" edge="1" parent="1" source="FrFTshlV5z5hL1M2k67Q-191" target="FrFTshlV5z5hL1M2k67Q-37">
          <mxGeometry relative="1" as="geometry">
            <Array as="points">
              <mxPoint x="175" y="1140" />
              <mxPoint x="44" y="1140" />
            </Array>
          </mxGeometry>
        </mxCell>
        <mxCell id="FrFTshlV5z5hL1M2k67Q-137" value="" style="group" vertex="1" connectable="0" parent="1">
          <mxGeometry y="1100" width="370" height="146.29999999999995" as="geometry" />
        </mxCell>
        <mxCell id="FrFTshlV5z5hL1M2k67Q-142" value="&lt;h1 style=&quot;margin-top: 0px;&quot;&gt;&lt;font style=&quot;font-size: 14px;&quot;&gt;Output Meta-Model&lt;/font&gt;&lt;/h1&gt;" style="text;html=1;whiteSpace=wrap;overflow=hidden;rounded=0;" vertex="1" parent="FrFTshlV5z5hL1M2k67Q-137">
          <mxGeometry x="118.63" width="132.73" height="42.35" as="geometry" />
        </mxCell>
        <mxCell id="FrFTshlV5z5hL1M2k67Q-163" value="" style="group" vertex="1" connectable="0" parent="FrFTshlV5z5hL1M2k67Q-137">
          <mxGeometry x="260" y="60" width="90" height="70" as="geometry" />
        </mxCell>
        <mxCell id="FrFTshlV5z5hL1M2k67Q-164" value="Meta-Model" style="ellipse;whiteSpace=wrap;html=1;shadow=0;" vertex="1" parent="FrFTshlV5z5hL1M2k67Q-163">
          <mxGeometry y="10" width="90" height="60" as="geometry" />
        </mxCell>
        <mxCell id="FrFTshlV5z5hL1M2k67Q-165" value="Q" style="shape=waypoint;sketch=0;fillStyle=solid;size=6;pointerEvents=1;points=[];fillColor=none;resizable=0;rotatable=0;perimeter=centerPerimeter;snapToPoint=1;strokeWidth=12;fontColor=#FFFFFF;fontSize=16;" vertex="1" parent="FrFTshlV5z5hL1M2k67Q-163">
          <mxGeometry x="78" y="9" width="20" height="20" as="geometry" />
        </mxCell>
        <mxCell id="FrFTshlV5z5hL1M2k67Q-166" value="[ready]" style="text;html=1;align=center;verticalAlign=middle;whiteSpace=wrap;rounded=0;" vertex="1" parent="FrFTshlV5z5hL1M2k67Q-137">
          <mxGeometry x="275" y="119.99608436338485" width="60" height="36.30391563661511" as="geometry" />
        </mxCell>
        <mxCell id="FrFTshlV5z5hL1M2k67Q-196" style="edgeStyle=orthogonalEdgeStyle;rounded=0;orthogonalLoop=1;jettySize=auto;html=1;entryX=1;entryY=0.5;entryDx=0;entryDy=0;" edge="1" parent="FrFTshlV5z5hL1M2k67Q-137" source="FrFTshlV5z5hL1M2k67Q-191" target="FrFTshlV5z5hL1M2k67Q-195">
          <mxGeometry relative="1" as="geometry" />
        </mxCell>
        <mxCell id="FrFTshlV5z5hL1M2k67Q-191" value="Meta-Model plotting" style="shape=document;whiteSpace=wrap;html=1;boundedLbl=1;" vertex="1" parent="FrFTshlV5z5hL1M2k67Q-137">
          <mxGeometry x="140" y="63.99514564785204" width="70" height="72.60783127323022" as="geometry" />
        </mxCell>
        <mxCell id="FrFTshlV5z5hL1M2k67Q-194" style="edgeStyle=orthogonalEdgeStyle;rounded=0;orthogonalLoop=1;jettySize=auto;html=1;entryX=1;entryY=0.5;entryDx=0;entryDy=0;" edge="1" parent="FrFTshlV5z5hL1M2k67Q-137" source="FrFTshlV5z5hL1M2k67Q-164" target="FrFTshlV5z5hL1M2k67Q-191">
          <mxGeometry relative="1" as="geometry" />
        </mxCell>
        <mxCell id="FrFTshlV5z5hL1M2k67Q-195" value="&lt;br&gt;Meta-Model output" style="shape=document;whiteSpace=wrap;html=1;boundedLbl=1;" vertex="1" parent="FrFTshlV5z5hL1M2k67Q-137">
          <mxGeometry x="20" y="63.99514564785204" width="70" height="72.60783127323022" as="geometry" />
        </mxCell>
        <mxCell id="FrFTshlV5z5hL1M2k67Q-197" value="R" style="shape=waypoint;sketch=0;fillStyle=solid;size=6;pointerEvents=1;points=[];fillColor=none;resizable=0;rotatable=0;perimeter=centerPerimeter;snapToPoint=1;strokeWidth=12;fontColor=#FFFFFF;fontSize=16;" vertex="1" parent="FrFTshlV5z5hL1M2k67Q-137">
          <mxGeometry x="200" y="47.34999999999991" width="20" height="20" as="geometry" />
        </mxCell>
        <mxCell id="FrFTshlV5z5hL1M2k67Q-198" value="S" style="shape=waypoint;sketch=0;fillStyle=solid;size=6;pointerEvents=1;points=[];fillColor=none;resizable=0;rotatable=0;perimeter=centerPerimeter;snapToPoint=1;strokeWidth=12;fontColor=#FFFFFF;fontSize=16;" vertex="1" parent="FrFTshlV5z5hL1M2k67Q-137">
          <mxGeometry x="10" y="47.34999999999991" width="20" height="20" as="geometry" />
        </mxCell>
      </root>
    </mxGraphModel>
  </diagram>
</mxfile>
